<svg width="24" height="24" viewBox="0 0 24 24" fill="none" xmlns="http://www.w3.org/2000/svg"><path opacity=".01" fill-rule="evenodd" clip-rule="evenodd" d="M0 .75h24v24H0v-24z" fill="currentColor"/><circle cx="16.5" cy="17.5" r="6" stroke="currentColor"/><path d="M13 17.5a.5.5 0 0 1 .5-.5h6a.5.5 0 0 1 0 1h-6a.5.5 0 0 1-.5-.5z" fill="currentColor"/><path d="M16.5 14a.5.5 0 0 1 .5.5v6a.5.5 0 0 1-1 0v-6a.5.5 0 0 1 .5-.5z" fill="currentColor"/><path d="M2.5 5.741a.5.5 0 0 1 .752-.431l3.016 1.758a.5.5 0 0 1 0 .864L3.252 9.69A.5.5 0 0 1 2.5 9.26V5.74z" stroke="currentColor" stroke-linejoin="round"/><rect x="5" y="3" width="15" height="1" rx=".5" fill="currentColor"/><rect x="6" y="7" width="14" height="1" rx=".5" fill="currentColor"/><rect x="2" y="12" width="6" height="1" rx=".5" fill="currentColor"/><rect x="2" y="16" width="5" height="1" rx=".5" fill="currentColor"/></svg>