<svg width="24" height="24" viewBox="0 0 24 24" xmlns="http://www.w3.org/2000/svg" xmlns:xlink="http://www.w3.org/1999/xlink"><defs><path id="a" d="M0 0H24V24H0z"/></defs><g fill="none" fill-rule="evenodd"><g transform="translate(3 3)"><path d="M9 0a9 9 0 0 1 5.877 15.816l-.559-.84a8 8 0 1 0-10.637 0l-.558.84A9 9 0 0 1 9 0zm0 3a6 6 0 0 1 4.194 10.29l-.567-.849a5 5 0 1 0-7.255 0l-.566.85A6 6 0 0 1 9 3zm0 3a3 3 0 0 1 2.47 4.704l-.623-.935a2 2 0 1 0-3.694 0l-.623.935A3 3 0 0 1 9 6z" fill="currentColor" fill-rule="nonzero"/><path d="M8.892 10.375l4.435 6.357a.498.498 0 0 1-.421.768H5.094a.498.498 0 0 1-.421-.768l3.905-6.138a.498.498 0 0 1 .314-.22z" stroke="currentColor"/></g></g></svg>