<svg width="24" height="24" viewBox="0 0 24 24" version="1.1" xmlns="http://www.w3.org/2000/svg" xmlns:xlink="http://www.w3.org/1999/xlink"><title>icon_drives_more</title><g id="hifier" stroke="none" stroke-width="1" fill="none" fill-rule="evenodd"><g id="2-Play_playlist_light" transform="translate(-327, -759)"><g id="icon_drives_more" transform="translate(327, 759)"><path d="M0,0 L24,0 L24,24 L0,24 L0,0 Z" id="路径" fill="#FFF" opacity="0"/><g id="编组" transform="translate(5, 11)" fill="currentColor"><path d="M1,0 C0.45,0 0,0.45 0,1 C0,1.55 0.45,2 1,2 C1.55,2 2,1.55 2,1 C2,0.45 1.55,0 1,0 L1,0 Z" id="Path"/><path d="M13,0 C12.45,0 12,0.45 12,1 C12,1.55 12.45,2 13,2 C13.55,2 14,1.55 14,1 C14,0.45 13.55,0 13,0 L13,0 Z" id="Path"/><path d="M7,0 C6.45,0 6,0.45 6,1 C6,1.55 6.45,2 7,2 C7.55,2 8,1.55 8,1 C8,0.45 7.55,0 7,0 L7,0 Z" id="Path"/></g></g></g></g></svg>