<svg xmlns="http://www.w3.org/2000/svg" viewBox="6.8 6.6 34.3 34.8"><path fill="none" stroke="currentColor" stroke-linecap="round" stroke-linejoin="round" stroke-miterlimit="10" d="M40.67 18.84c-.135-6.22-5.204-11.428-11.418-11.72-6.773-.32-12.371 4.982-12.562 11.638l-.017 13.927a8.21 8.21 0 0 0 8.21 8.21h.677a8.21 8.21 0 0 0 8.21-8.21c0-1.562.766-3.008 2.023-3.935 3.024-2.231 4.965-5.843 4.877-9.91z"/><path fill="none" stroke="currentColor" stroke-linecap="round" stroke-linejoin="round" stroke-miterlimit="10" d="M35.27 18.474a6.597 6.597 0 1 0-13.194 0v3.782"/><path fill="none" stroke="currentColor" stroke-linecap="round" stroke-linejoin="round" stroke-miterlimit="10" d="M22.076 20.152a3.621 3.621 0 0 1 0 7.243m0 0v4.1a3.165 3.165 0 0 0 6.329 0v-.979a3.121 3.121 0 0 1 3.121-3.121"/><g><path fill="none" stroke="currentColor" stroke-linecap="round" stroke-linejoin="round" stroke-miterlimit="10" d="M7.327 21.004a4.23 4.23 0 0 1 0 5.992M9.66 16.51c1.922 1.908 3.11 4.565 3.11 7.491s-1.188 5.583-3.11 7.491"/></g></svg>