<svg width="24" height="24" viewBox="0 0 24 24" version="1.1" xmlns="http://www.w3.org/2000/svg" xmlns:xlink="http://www.w3.org/1999/xlink"><title>icon_play_playlist</title><defs><rect id="path-1" x="0" y="0" width="24" height="24"/></defs><g id="hifier" stroke="none" stroke-width="1" fill="none" fill-rule="evenodd"><g id="icon" transform="translate(-204, -324)"><g id="icon_play_playlist" transform="translate(204, 324)"><mask id="mask-2" fill="#fff"><use xlink:href="#path-1"/></mask><use id="路径" fill="currentColor" opacity="0" xlink:href="#path-1"/><path d="M4.52999894,4.95624934 L7.24320271,6.6520017 C7.71153924,6.94471203 7.85391241,7.56166241 7.56120208,8.02999894 C7.48072137,8.15876807 7.37197185,8.2675176 7.24320271,8.3479983 L4.52999894,10.0437507 C4.06166241,10.336461 3.44471203,10.1940878 3.1520017,9.7257513 C3.05266944,9.5668197 3,9.38317208 3,9.19575236 L3,5.80424764 C3,5.25196289 3.44771525,4.80424764 4,4.80424764 C4.18741972,4.80424764 4.37106734,4.85691709 4.52999894,4.95624934 Z" id="路径" fill="currentColor"/><rect id="矩形" fill="currentColor" x="11" y="7" width="10" height="1" rx=".5"/><rect id="矩形备份-2" fill="currentColor" x="3" y="13" width="18" height="1" rx=".5"/><rect id="矩形备份-3" fill="currentColor" x="3" y="19" width="18" height="1" rx=".5"/></g></g></g></svg>