<svg width="24" height="24" viewBox="0 0 24 24" xmlns="http://www.w3.org/2000/svg" xmlns:xlink="http://www.w3.org/1999/xlink"><defs><path id="a" d="M0 0H24V24H0z"/></defs><g fill="none" fill-rule="evenodd"><path d="M9 4.997h6l.112.002L15 5v.997H9a5 5 0 0 0-5 5v.503a.5.5 0 1 1-1 0V11a6 6 0 0 1 6-6.003z" fill="currentColor" fill-rule="nonzero"/><path d="M21.5 13a.5.5 0 0 1 .5.5l-.001.499A5.998 5.998 0 0 1 16 19.997h-6v-1h6A5 5 0 0 0 21 14V13.5a.5.5 0 0 1 .5-.5z" fill="currentColor"/><path fill="currentColor" d="M15 5H16V6H15z"/><path d="M18.53 3.956l2.713 1.696a1 1 0 0 1 0 1.696L18.53 9.044A1 1 0 0 1 17 8.196V4.804a1 1 0 0 1 1.53-.848z" fill="currentColor"/><path d="M6.392 20.906L3.679 19.21a1 1 0 0 1 0-1.696l2.713-1.696a1 1 0 0 1 1.53.848v3.392a1 1 0 0 1-1.53.848z" fill="currentColor"/><path fill="currentColor" d="M9 19H10V20H9z"/></g></svg>